# xmcd
# 
# Track frame offsets:
#     150
#     12009
#     35312
#     58072
#     79119
#     105672
#     121268
#     148484
#     163890
#     186980
#     210955
#     227573
#     252122
#     269488
#     278870
#     300453
#     319348
#     338990
#     354559
# 
# Disc length: 4768
# 
# Revision: 7
# Processed by: cddbd v1.5.2PL0 Copyright (c) Steve Scherf et al.
# Submitted via: fre:ac v1.0.27
# 
DISCID=16129e13
DTITLE=Various Artist - STUNT Records 35 Years 1983-2018
DYEAR=2018
DGENRE=Jazz
TTITLE0=Christina Dahl, Ed Thigpen - With Me
TTITLE1=Snorre Kirk - Monaco
TTITLE2=Steen Rasmussen - Nothing Like The Sun
TTITLE3=Scott Hamilton - Min Soldat
TTITLE4=String Swing W. Josefine Cronholm, Richard Galliano - So It Better Be
TTITLE5=Diego Figuieredo W. George Garzone - Flor Azul
TTITLE6=Kasper Villaume W. Chris Potter - Captain Kirkland
TTITLE7=Anders Christensen W. Aaron Parks, Paul Motian - Dear Someone
TTITLE8=Kira Skov W. Bonnie "Prince" Billy - Lilac Sky
TTITLE9=Marco Mezquida, Jesper Bodilsen, Martin Andersen - Joy
TTITLE10=Malene Mortensen W. Christian Sands - Honeysuckle Rose
TTITLE11=Jan Johansson, Oscar Pettiford, Stan Getz, Joe Harris - I Remember Clifford
TTITLE12=Povl Dissing W. Jacob Bro - On The Sunny Side Of The Street
TTITLE13=Dorado and Amati Schmitt Group - Sinti Rhapsody
TTITLE14=Sinne Eeg - Aleppo
TTITLE15=Mads Vinding, Enrico Pieranunzi, Alex Riel - Lover
TTITLE16=Inger Marie W. Ulf Wakenius - I Dont Want To Talk About It
TTITLE17=Kenneth Knudsen, Mikkel Nordsø, Ole Theill - Benjamin
TTITLE18=Christina Dahl, Ed Thigpen - Walk With Me - The End
EXTD=YEAR: 2018
EXTT0=
EXTT1=
EXTT2=
EXTT3=
EXTT4=
EXTT5=
EXTT6=
EXTT7=
EXTT8=
EXTT9=
EXTT10=
EXTT11=
EXTT12=
EXTT13=
EXTT14=
EXTT15=
EXTT16=
EXTT17=
EXTT18=
PLAYORDER=
